<?xml version="1.0" encoding="UTF-8"?>
<svg width="59px" height="33px" viewBox="0 0 59 33" version="1.1" xmlns="http://www.w3.org/2000/svg" xmlns:xlink="http://www.w3.org/1999/xlink">
    <!-- Generator: Sketch 44.1 (41455) - http://www.bohemiancoding.com/sketch -->
    <title>logo</title>
    <desc>Created with Sketch.</desc>
    <defs></defs>
    <g id="Symbols" stroke="none" stroke-width="1" fill="none" fill-rule="evenodd">
        <g id="navegation" transform="translate(-78.000000, -27.000000)">
            <g id="logo" transform="translate(80.000000, 29.000000)">
                <path d="M41.3059576,25.5330755 C43.120089,27.2692777 45.2896412,28.1373789 47.8146142,28.1373789 C51.6020736,28.1373789 54.2605269,23.7044028 54.2605269,21.12869 C54.2605269,18.5529773 43.036558,1.92806481 39.251852,0.740926967 C36.7287146,-0.0504982603 32.9440064,1.91150254 27.8977273,6.62692936" id="Path-5" stroke="#8D94FF" stroke-width="4"></path>
                <path d="M9.12769438,5.09937031 C11.5036902,1.53317537 14.6585527,0.300338967 18.5922818,1.40086111 C24.4928755,3.05164433 39.3954065,23.8531544 41.4976038,25.7494961" id="Path-4" stroke="#8D94FF" stroke-width="4"></path>
                <path d="M21.9140621,11 L24.7767813,14.6711092 C21.4496358,19.7495286 20.8685043,23.1646194 23.0333871,24.9163814 C25.1982699,26.6681434 27.9995006,25.9901584 31.4370793,22.8824265 L34.1668893,26.3848073 C32.4305306,28.9237009 30.3191381,30.371188 27.8327119,30.7272684 C24.1030726,31.2613892 19.0463446,30.2287076 17.0867586,24.1364099 C15.780368,20.074878 17.3894692,15.6960747 21.9140621,11 Z" id="Path-2" fill="#8D94FF"></path>
                <path d="M13.4483957,26.2293086 C7.50366339,29.2942431 3.40564065,28.9209042 1.15432741,25.1092919 C-1.09698583,21.2976795 1.61744067,14.5216628 9.29760693,4.78124174" id="Path-3" stroke="#8D94FF" stroke-width="4"></path>
            </g>
        </g>
    </g>
</svg>